<?xml version="1.0" standalone="no"?>
<!DOCTYPE svg PUBLIC "-//W3C//DTD SVG 20010904//EN"
 "http://www.w3.org/TR/2001/REC-SVG-20010904/DTD/svg10.dtd">
<svg version="1.0" xmlns="http://www.w3.org/2000/svg"
 width="1024.000000pt" height="1024.000000pt" viewBox="0 0 1024.000000 1024.000000"
 preserveAspectRatio="xMidYMid meet">
<metadata>
Created by potrace 1.11, written by Peter Selinger 2001-2013
</metadata>
<g transform="translate(0.000000,1024.000000) scale(0.100000,-0.100000)"
fill="#000000" stroke="none">
<path d="M0 5120 l0 -5120 5120 0 5120 0 0 5120 0 5120 -5120 0 -5120 0 0
-5120z m6566 3220 c223 -56 383 -195 478 -415 115 -266 115 -770 0 -1170 -125
-433 -406 -905 -757 -1271 l-49 -52 7 -53 c13 -97 134 -778 191 -1069 94 -487
313 -1521 340 -1608 13 -39 -29 25 -67 106 -61 127 -142 341 -301 792 -91 257
-387 1152 -505 1523 -10 34 -19 47 -29 43 -8 -3 -96 -54 -196 -114 -101 -59
-218 -128 -261 -152 -70 -40 -77 -47 -73 -70 8 -40 35 -294 45 -430 46 -591
-4 -1139 -134 -1485 -34 -91 -115 -242 -166 -312 -102 -138 -270 -284 -409
-357 -292 -153 -651 -142 -996 32 -309 156 -496 384 -559 682 -43 206 -19 476
61 679 160 404 454 769 835 1036 212 149 548 337 754 420 39 16 71 30 73 31 9
6 -101 618 -143 799 -210 911 -428 1355 -665 1355 -65 0 -123 -31 -194 -102
-73 -73 -134 -187 -167 -313 -30 -112 -38 -399 -15 -575 48 -364 205 -854 434
-1355 33 -71 58 -132 56 -134 -6 -7 -142 119 -225 210 -46 50 -97 106 -113
123 -16 17 -64 75 -106 128 -471 586 -700 1189 -651 1712 48 510 281 894 628
1038 77 33 80 33 238 33 155 -1 163 -2 243 -32 217 -83 355 -234 512 -558 221
-457 401 -1090 555 -1950 20 -110 38 -201 40 -204 10 -9 311 148 432 225 l51
33 -39 133 c-120 402 -207 836 -238 1188 -14 149 -14 465 0 587 19 176 85 384
160 509 106 176 301 315 511 363 118 27 308 28 414 1z"/>
<path d="M6285 7665 c-107 -41 -187 -200 -225 -447 -18 -119 -24 -468 -11
-649 17 -229 74 -661 86 -647 1 2 27 44 58 93 155 254 283 582 348 895 40 189
51 438 25 540 -45 176 -157 261 -281 215z"/>
<path d="M4795 4582 c-107 -56 -293 -178 -402 -264 -118 -93 -323 -299 -412
-412 -202 -260 -301 -505 -288 -714 4 -70 11 -96 41 -157 68 -138 202 -230
351 -241 105 -8 182 7 280 55 145 72 263 203 368 408 135 265 180 506 180 983
1 262 -6 390 -21 390 -4 0 -48 -22 -97 -48z"/>
</g>
</svg>
